{
    "asset" : {
        "generator" : "Khronos glTF Blender I/O v1.0.5",
        "version" : "2.0"
    },
    "scene" : 0,
    "scenes" : [
        {
            "name" : "Scene",
            "nodes" : [
                0
            ]
        }
    ],
    "nodes" : [
        {
            "mesh" : 0,
            "name" : "Tiger_Cylinder.014",
            "rotation" : [
                0.7071068286895752,
                0,
                0,
                0.7071067094802856
            ],
            "translation" : [
                -0.3363282084465027,
                -0.25894036889076233,
                1.134716510772705
            ]
        }
    ],
    "materials" : [
        {
            "doubleSided" : true,
            "name" : "Tiger",
            "pbrMetallicRoughness" : {
                "baseColorTexture" : {
                    "index" : 0,
                    "texCoord" : 0
                },
                "metallicFactor" : 0,
                "roughnessFactor" : 0.5
            }
        }
    ],
    "meshes" : [
        {
            "name" : "Tiger_Cylinder.014",
            "primitives" : [
                {
                    "attributes" : {
                        "POSITION" : 0,
                        "NORMAL" : 1,
                        "TEXCOORD_0" : 2
                    },
                    "indices" : 3,
                    "material" : 0
                }
            ]
        }
    ],
    "textures" : [
        {
            "source" : 0
        }
    ],
    "images" : [
        {
            "bufferView" : 4,
            "mimeType" : "image/png",
            "name" : "Tiger_yellow"
        }
    ],
    "accessors" : [
        {
            "bufferView" : 0,
            "componentType" : 5126,
            "count" : 780,
            "max" : [
                0.7691590189933777,
                2.291266918182373,
                0.0004290000069886446
            ],
            "min" : [
                -0.7691590189933777,
                -4.443781852722168,
                -3.6712539196014404
            ],
            "type" : "VEC3"
        },
        {
            "bufferView" : 1,
            "componentType" : 5126,
            "count" : 780,
            "type" : "VEC3"
        },
        {
            "bufferView" : 2,
            "componentType" : 5126,
            "count" : 780,
            "type" : "VEC2"
        },
        {
            "bufferView" : 3,
            "componentType" : 5123,
            "count" : 3588,
            "type" : "SCALAR"
        }
    ],
    "bufferViews" : [
        {
            "buffer" : 0,
            "byteLength" : 9360,
            "byteOffset" : 0
        },
        {
            "buffer" : 0,
            "byteLength" : 9360,
            "byteOffset" : 9360
        },
        {
            "buffer" : 0,
            "byteLength" : 6240,
            "byteOffset" : 18720
        },
        {
            "buffer" : 0,
            "byteLength" : 7176,
            "byteOffset" : 24960
        },
        {
            "buffer" : 0,
            "byteLength" : 2751176,
            "byteOffset" : 32136
        }
    ],
    "buffers" : [
        {
            "byteLength" : 2783312,
            "uri" : "data:application/octet-stream;base64,"
        }
    ]
}
