{
    "asset" : {
        "generator" : "Khronos glTF Blender I/O v1.0.5",
        "version" : "2.0"
    },
    "scene" : 0,
    "scenes" : [
        {
            "name" : "Scene",
            "nodes" : [
                0,
                1,
                2
            ]
        }
    ],
    "nodes" : [
        {
            "mesh" : 0,
            "name" : "Cube.001",
            "rotation" : [
                0.7071068286895752,
                0,
                0,
                0.7071067094802856
            ]
        },
        {
            "mesh" : 1,
            "name" : "Cylinder",
            "rotation" : [
                0.7071068286895752,
                0,
                0,
                0.7071067094802856
            ]
        },
        {
            "mesh" : 2,
            "name" : "Cube.002",
            "rotation" : [
                0.7071068286895752,
                0,
                0,
                0.7071067094802856
            ]
        }
    ],
    "materials" : [
        {
            "doubleSided" : true,
            "name" : "black",
            "pbrMetallicRoughness" : {
                "baseColorFactor" : [
                    0.0039160000160336494,
                    0.0039160000160336494,
                    0.0039160000160336494,
                    1
                ],
                "metallicFactor" : 0,
                "roughnessFactor" : 0.6732679605484009
            }
        },
        {
            "doubleSided" : true,
            "name" : "glass",
            "pbrMetallicRoughness" : {
                "baseColorFactor" : [
                    0.6399999856948853,
                    0.6399999856948853,
                    0.6399999856948853,
                    1
                ],
                "metallicFactor" : 0,
                "roughnessFactor" : 0.6732679605484009
            }
        },
        {
            "doubleSided" : true,
            "name" : "wood",
            "pbrMetallicRoughness" : {
                "baseColorFactor" : [
                    0.10259100049734116,
                    0.01686899922788143,
                    0.006335999816656113,
                    1
                ],
                "metallicFactor" : 0,
                "roughnessFactor" : 0.6732679605484009
            }
        }
    ],
    "meshes" : [
        {
            "name" : "Cube.001",
            "primitives" : [
                {
                    "attributes" : {
                        "POSITION" : 0,
                        "NORMAL" : 1
                    },
                    "indices" : 2,
                    "material" : 0
                },
                {
                    "attributes" : {
                        "POSITION" : 3,
                        "NORMAL" : 4
                    },
                    "indices" : 5,
                    "material" : 1
                }
            ]
        },
        {
            "name" : "Cylinder",
            "primitives" : [
                {
                    "attributes" : {
                        "POSITION" : 6,
                        "NORMAL" : 7
                    },
                    "indices" : 8,
                    "material" : 0
                }
            ]
        },
        {
            "name" : "Cube.002",
            "primitives" : [
                {
                    "attributes" : {
                        "POSITION" : 9,
                        "NORMAL" : 10
                    },
                    "indices" : 11,
                    "material" : 2
                },
                {
                    "attributes" : {
                        "POSITION" : 12,
                        "NORMAL" : 13
                    },
                    "indices" : 14,
                    "material" : 0
                }
            ]
        }
    ],
    "accessors" : [
        {
            "bufferView" : 0,
            "componentType" : 5126,
            "count" : 1458,
            "max" : [
                0.22895200550556183,
                2.0597779750823975,
                -0.2969520092010498
            ],
            "min" : [
                -0.2777999937534332,
                -0.9050189852714539,
                -1.0320149660110474
            ],
            "type" : "VEC3"
        },
        {
            "bufferView" : 1,
            "componentType" : 5126,
            "count" : 1458,
            "type" : "VEC3"
        },
        {
            "bufferView" : 2,
            "componentType" : 5123,
            "count" : 2550,
            "type" : "SCALAR"
        },
        {
            "bufferView" : 3,
            "componentType" : 5126,
            "count" : 16,
            "max" : [
                0.17853300273418427,
                1.9899109601974487,
                -0.5756809711456299
            ],
            "min" : [
                -0.22738100588321686,
                -0.8558580279350281,
                -0.9815959930419922
            ],
            "type" : "VEC3"
        },
        {
            "bufferView" : 4,
            "componentType" : 5126,
            "count" : 16,
            "type" : "VEC3"
        },
        {
            "bufferView" : 5,
            "componentType" : 5123,
            "count" : 36,
            "type" : "SCALAR"
        },
        {
            "bufferView" : 6,
            "componentType" : 5126,
            "count" : 554,
            "max" : [
                0.31900501251220703,
                1.7618069648742676,
                -0.08683499693870544
            ],
            "min" : [
                -0.10801500082015991,
                -4.693926811218262,
                -0.4761660099029541
            ],
            "type" : "VEC3"
        },
        {
            "bufferView" : 7,
            "componentType" : 5126,
            "count" : 554,
            "type" : "VEC3"
        },
        {
            "bufferView" : 8,
            "componentType" : 5123,
            "count" : 870,
            "type" : "SCALAR"
        },
        {
            "bufferView" : 9,
            "componentType" : 5126,
            "count" : 1177,
            "max" : [
                0.2190839946269989,
                4.462798118591309,
                0.9904549717903137
            ],
            "min" : [
                -0.2190839946269989,
                -2.0617899894714355,
                -0.36355599761009216
            ],
            "type" : "VEC3"
        },
        {
            "bufferView" : 10,
            "componentType" : 5126,
            "count" : 1177,
            "type" : "VEC3"
        },
        {
            "bufferView" : 11,
            "componentType" : 5123,
            "count" : 1848,
            "type" : "SCALAR"
        },
        {
            "bufferView" : 12,
            "componentType" : 5126,
            "count" : 926,
            "max" : [
                0.2190829962491989,
                4.616825103759766,
                1.0653150081634521
            ],
            "min" : [
                -0.2190829962491989,
                1.1537669897079468,
                -0.07916100323200226
            ],
            "type" : "VEC3"
        },
        {
            "bufferView" : 13,
            "componentType" : 5126,
            "count" : 926,
            "type" : "VEC3"
        },
        {
            "bufferView" : 14,
            "componentType" : 5123,
            "count" : 1644,
            "type" : "SCALAR"
        }
    ],
    "bufferViews" : [
        {
            "buffer" : 0,
            "byteLength" : 17496,
            "byteOffset" : 0
        },
        {
            "buffer" : 0,
            "byteLength" : 17496,
            "byteOffset" : 17496
        },
        {
            "buffer" : 0,
            "byteLength" : 5100,
            "byteOffset" : 34992
        },
        {
            "buffer" : 0,
            "byteLength" : 192,
            "byteOffset" : 40092
        },
        {
            "buffer" : 0,
            "byteLength" : 192,
            "byteOffset" : 40284
        },
        {
            "buffer" : 0,
            "byteLength" : 72,
            "byteOffset" : 40476
        },
        {
            "buffer" : 0,
            "byteLength" : 6648,
            "byteOffset" : 40548
        },
        {
            "buffer" : 0,
            "byteLength" : 6648,
            "byteOffset" : 47196
        },
        {
            "buffer" : 0,
            "byteLength" : 1740,
            "byteOffset" : 53844
        },
        {
            "buffer" : 0,
            "byteLength" : 14124,
            "byteOffset" : 55584
        },
        {
            "buffer" : 0,
            "byteLength" : 14124,
            "byteOffset" : 69708
        },
        {
            "buffer" : 0,
            "byteLength" : 3696,
            "byteOffset" : 83832
        },
        {
            "buffer" : 0,
            "byteLength" : 11112,
            "byteOffset" : 87528
        },
        {
            "buffer" : 0,
            "byteLength" : 11112,
            "byteOffset" : 98640
        },
        {
            "buffer" : 0,
            "byteLength" : 3288,
            "byteOffset" : 109752
        }
    ],
    "buffers" : [
        {
            "byteLength" : 113040,
            "uri" : "data:application/octet-stream;base64,"
        }
    ]
}
