{
    "asset" : {
        "generator" : "Khronos glTF Blender I/O v1.0.5",
        "version" : "2.0"
    },
    "scene" : 0,
    "scenes" : [
        {
            "name" : "Scene",
            "nodes" : [
                0
            ]
        }
    ],
    "nodes" : [
        {
            "mesh" : 0,
            "name" : "mesh_0",
            "rotation" : [
                0.7071068286895752,
                0,
                0,
                0.7071067094802856
            ],
            "translation" : [
                0,
                3.049147367477417,
                0
            ]
        }
    ],
    "materials" : [
        {
            "doubleSided" : true,
            "name" : "Material.001",
            "pbrMetallicRoughness" : {
                "baseColorTexture" : {
                    "index" : 0,
                    "texCoord" : 0
                },
                "metallicFactor" : 0,
                "roughnessFactor" : 0.6732679605484009
            }
        }
    ],
    "meshes" : [
        {
            "name" : "mesh_0",
            "primitives" : [
                {
                    "attributes" : {
                        "POSITION" : 0,
                        "NORMAL" : 1,
                        "TEXCOORD_0" : 2
                    },
                    "indices" : 3,
                    "material" : 0
                }
            ]
        }
    ],
    "textures" : [
        {
            "source" : 0
        }
    ],
    "images" : [
        {
            "bufferView" : 4,
            "mimeType" : "image/png",
            "name" : "elefantefull"
        }
    ],
    "accessors" : [
        {
            "bufferView" : 0,
            "componentType" : 5126,
            "count" : 38885,
            "max" : [
                1.1950689554214478,
                4.452103137969971,
                3.2619919776916504
            ],
            "min" : [
                -2.0449490547180176,
                -3.5270841121673584,
                -3.0164389610290527
            ],
            "type" : "VEC3"
        },
        {
            "bufferView" : 1,
            "componentType" : 5126,
            "count" : 38885,
            "type" : "VEC3"
        },
        {
            "bufferView" : 2,
            "componentType" : 5126,
            "count" : 38885,
            "type" : "VEC2"
        },
        {
            "bufferView" : 3,
            "componentType" : 5123,
            "count" : 197850,
            "type" : "SCALAR"
        }
    ],
    "bufferViews" : [
        {
            "buffer" : 0,
            "byteLength" : 466620,
            "byteOffset" : 0
        },
        {
            "buffer" : 0,
            "byteLength" : 466620,
            "byteOffset" : 466620
        },
        {
            "buffer" : 0,
            "byteLength" : 311080,
            "byteOffset" : 933240
        },
        {
            "buffer" : 0,
            "byteLength" : 395700,
            "byteOffset" : 1244320
        },
        {
            "buffer" : 0,
            "byteLength" : 1173294,
            "byteOffset" : 1640020
        }
    ],
    "buffers" : [
        {
            "byteLength" : 2813316,
            "uri" : "data:application/octet-stream;base64,"
        }
    ]
}
