{
    "asset" : {
        "generator" : "Khronos glTF Blender I/O v1.0.5",
        "version" : "2.0"
    },
    "scene" : 0,
    "scenes" : [
        {
            "name" : "Scene",
            "nodes" : [
                0
            ]
        }
    ],
    "nodes" : [
        {
            "mesh" : 0,
            "name" : "deer",
            "rotation" : [
                0.7071068286895752,
                0,
                0,
                0.7071067094802856
            ]
        }
    ],
    "materials" : [
        {
            "doubleSided" : true,
            "name" : "Material__334",
            "pbrMetallicRoughness" : {
                "baseColorTexture" : {
                    "index" : 0,
                    "texCoord" : 0
                },
                "metallicFactor" : 0,
                "roughnessFactor" : 0.8945907354354858
            }
        },
        {
            "doubleSided" : true,
            "name" : "Material__282",
            "pbrMetallicRoughness" : {
                "baseColorFactor" : [
                    0.4471000134944916,
                    0.35690000653266907,
                    0.3255000114440918,
                    1
                ],
                "metallicFactor" : 0,
                "roughnessFactor" : 0.8945907354354858
            }
        },
        {
            "doubleSided" : true,
            "name" : "Material__283",
            "pbrMetallicRoughness" : {
                "baseColorTexture" : {
                    "index" : 1,
                    "texCoord" : 0
                },
                "metallicFactor" : 0,
                "roughnessFactor" : 0.8945907354354858
            }
        },
        {
            "doubleSided" : true,
            "name" : "Material__346",
            "pbrMetallicRoughness" : {
                "baseColorTexture" : {
                    "index" : 2,
                    "texCoord" : 0
                },
                "metallicFactor" : 0,
                "roughnessFactor" : 0.8945907354354858
            }
        },
        {
            "doubleSided" : true,
            "name" : "Material__359",
            "pbrMetallicRoughness" : {
                "baseColorTexture" : {
                    "index" : 3,
                    "texCoord" : 0
                },
                "metallicFactor" : 0,
                "roughnessFactor" : 0.8945907354354858
            }
        },
        {
            "doubleSided" : true,
            "name" : "Material__419",
            "pbrMetallicRoughness" : {
                "baseColorTexture" : {
                    "index" : 4,
                    "texCoord" : 0
                },
                "metallicFactor" : 0,
                "roughnessFactor" : 0.8625631332397461
            }
        },
        {
            "doubleSided" : true,
            "name" : "Material__295",
            "pbrMetallicRoughness" : {
                "baseColorTexture" : {
                    "index" : 5,
                    "texCoord" : 0
                },
                "metallicFactor" : 0,
                "roughnessFactor" : 0.8547033667564392
            }
        },
        {
            "doubleSided" : true,
            "name" : "Material__321",
            "pbrMetallicRoughness" : {
                "baseColorTexture" : {
                    "index" : 6,
                    "texCoord" : 0
                },
                "metallicFactor" : 0,
                "roughnessFactor" : 0.8945907354354858
            }
        },
        {
            "doubleSided" : true,
            "name" : "Material__383",
            "pbrMetallicRoughness" : {
                "baseColorTexture" : {
                    "index" : 7,
                    "texCoord" : 0
                },
                "metallicFactor" : 0,
                "roughnessFactor" : 0.8945907354354858
            }
        }
    ],
    "meshes" : [
        {
            "name" : "deer",
            "primitives" : [
                {
                    "attributes" : {
                        "POSITION" : 0,
                        "NORMAL" : 1,
                        "TEXCOORD_0" : 2
                    },
                    "indices" : 3,
                    "material" : 0
                },
                {
                    "attributes" : {
                        "POSITION" : 4,
                        "NORMAL" : 5,
                        "TEXCOORD_0" : 6
                    },
                    "indices" : 7,
                    "material" : 1
                },
                {
                    "attributes" : {
                        "POSITION" : 8,
                        "NORMAL" : 9,
                        "TEXCOORD_0" : 10
                    },
                    "indices" : 11,
                    "material" : 2
                },
                {
                    "attributes" : {
                        "POSITION" : 12,
                        "NORMAL" : 13,
                        "TEXCOORD_0" : 14
                    },
                    "indices" : 15,
                    "material" : 3
                },
                {
                    "attributes" : {
                        "POSITION" : 16,
                        "NORMAL" : 17,
                        "TEXCOORD_0" : 18
                    },
                    "indices" : 19,
                    "material" : 4
                },
                {
                    "attributes" : {
                        "POSITION" : 20,
                        "NORMAL" : 21,
                        "TEXCOORD_0" : 22
                    },
                    "indices" : 23,
                    "material" : 5
                },
                {
                    "attributes" : {
                        "POSITION" : 24,
                        "NORMAL" : 25,
                        "TEXCOORD_0" : 26
                    },
                    "indices" : 27,
                    "material" : 6
                },
                {
                    "attributes" : {
                        "POSITION" : 28,
                        "NORMAL" : 29,
                        "TEXCOORD_0" : 30
                    },
                    "indices" : 31,
                    "material" : 7
                },
                {
                    "attributes" : {
                        "POSITION" : 32,
                        "NORMAL" : 33,
                        "TEXCOORD_0" : 34
                    },
                    "indices" : 35,
                    "material" : 8
                }
            ]
        }
    ],
    "textures" : [
        {
            "source" : 0
        },
        {
            "source" : 1
        },
        {
            "source" : 2
        },
        {
            "source" : 3
        },
        {
            "source" : 4
        },
        {
            "source" : 5
        },
        {
            "source" : 6
        },
        {
            "source" : 7
        }
    ],
    "images" : [
        {
            "bufferView" : 4,
            "mimeType" : "image/png",
            "name" : "deer03"
        },
        {
            "bufferView" : 13,
            "mimeType" : "image/png",
            "name" : "deer01"
        },
        {
            "bufferView" : 18,
            "mimeType" : "image/png",
            "name" : "dg04"
        },
        {
            "bufferView" : 23,
            "mimeType" : "image/png",
            "name" : "dg03"
        },
        {
            "bufferView" : 28,
            "mimeType" : "image/png",
            "name" : "dg01"
        },
        {
            "bufferView" : 33,
            "mimeType" : "image/png",
            "name" : "deereye"
        },
        {
            "bufferView" : 38,
            "mimeType" : "image/png",
            "name" : "deer02"
        },
        {
            "bufferView" : 43,
            "mimeType" : "image/png",
            "name" : "dg02"
        }
    ],
    "accessors" : [
        {
            "bufferView" : 0,
            "componentType" : 5126,
            "count" : 210,
            "max" : [
                3.4050700664520264,
                7.779151916503906,
                -12.859979629516602
            ],
            "min" : [
                -3.4050700664520264,
                -5.9326372146606445,
                -20.95783805847168
            ],
            "type" : "VEC3"
        },
        {
            "bufferView" : 1,
            "componentType" : 5126,
            "count" : 210,
            "type" : "VEC3"
        },
        {
            "bufferView" : 2,
            "componentType" : 5126,
            "count" : 210,
            "type" : "VEC2"
        },
        {
            "bufferView" : 3,
            "componentType" : 5123,
            "count" : 984,
            "type" : "SCALAR"
        },
        {
            "bufferView" : 5,
            "componentType" : 5126,
            "count" : 1233,
            "max" : [
                3.870349884033203,
                13.980344772338867,
                -6.247140884399414
            ],
            "min" : [
                -3.870349884033203,
                -6.563898086547852,
                -25.47079849243164
            ],
            "type" : "VEC3"
        },
        {
            "bufferView" : 6,
            "componentType" : 5126,
            "count" : 1233,
            "type" : "VEC3"
        },
        {
            "bufferView" : 7,
            "componentType" : 5126,
            "count" : 1233,
            "type" : "VEC2"
        },
        {
            "bufferView" : 8,
            "componentType" : 5123,
            "count" : 5772,
            "type" : "SCALAR"
        },
        {
            "bufferView" : 9,
            "componentType" : 5126,
            "count" : 503,
            "max" : [
                2.9456000328063965,
                15.14460277557373,
                -10.022688865661621
            ],
            "min" : [
                -2.9456000328063965,
                -6.548858165740967,
                -22.57602882385254
            ],
            "type" : "VEC3"
        },
        {
            "bufferView" : 10,
            "componentType" : 5126,
            "count" : 503,
            "type" : "VEC3"
        },
        {
            "bufferView" : 11,
            "componentType" : 5126,
            "count" : 503,
            "type" : "VEC2"
        },
        {
            "bufferView" : 12,
            "componentType" : 5123,
            "count" : 2292,
            "type" : "SCALAR"
        },
        {
            "bufferView" : 14,
            "componentType" : 5126,
            "count" : 1400,
            "max" : [
                3.062619924545288,
                6.076849937438965,
                0.11958099901676178
            ],
            "min" : [
                -3.062619924545288,
                -5.754289150238037,
                -6.765749931335449
            ],
            "type" : "VEC3"
        },
        {
            "bufferView" : 15,
            "componentType" : 5126,
            "count" : 1400,
            "type" : "VEC3"
        },
        {
            "bufferView" : 16,
            "componentType" : 5126,
            "count" : 1400,
            "type" : "VEC2"
        },
        {
            "bufferView" : 17,
            "componentType" : 5123,
            "count" : 7104,
            "type" : "SCALAR"
        },
        {
            "bufferView" : 19,
            "componentType" : 5126,
            "count" : 238,
            "max" : [
                4.222080230712891,
                10.238373756408691,
                -23.32231903076172
            ],
            "min" : [
                -4.222080230712891,
                9.23742389678955,
                -24.787357330322266
            ],
            "type" : "VEC3"
        },
        {
            "bufferView" : 20,
            "componentType" : 5126,
            "count" : 238,
            "type" : "VEC3"
        },
        {
            "bufferView" : 21,
            "componentType" : 5126,
            "count" : 238,
            "type" : "VEC2"
        },
        {
            "bufferView" : 22,
            "componentType" : 5123,
            "count" : 1128,
            "type" : "SCALAR"
        },
        {
            "bufferView" : 24,
            "componentType" : 5126,
            "count" : 1837,
            "max" : [
                5.479549884796143,
                14.988913536071777,
                -24.803508758544922
            ],
            "min" : [
                -6.517749786376953,
                4.472535133361816,
                -34.26416015625
            ],
            "type" : "VEC3"
        },
        {
            "bufferView" : 25,
            "componentType" : 5126,
            "count" : 1837,
            "type" : "VEC3"
        },
        {
            "bufferView" : 26,
            "componentType" : 5126,
            "count" : 1837,
            "type" : "VEC2"
        },
        {
            "bufferView" : 27,
            "componentType" : 5123,
            "count" : 8208,
            "type" : "SCALAR"
        },
        {
            "bufferView" : 29,
            "componentType" : 5126,
            "count" : 98,
            "max" : [
                2.007539987564087,
                13.145323753356934,
                -21.614198684692383
            ],
            "min" : [
                -2.007539987564087,
                11.694124221801758,
                -23.01980972290039
            ],
            "type" : "VEC3"
        },
        {
            "bufferView" : 30,
            "componentType" : 5126,
            "count" : 98,
            "type" : "VEC3"
        },
        {
            "bufferView" : 31,
            "componentType" : 5126,
            "count" : 98,
            "type" : "VEC2"
        },
        {
            "bufferView" : 32,
            "componentType" : 5123,
            "count" : 384,
            "type" : "SCALAR"
        },
        {
            "bufferView" : 34,
            "componentType" : 5126,
            "count" : 186,
            "max" : [
                2.3595900535583496,
                15.174764633178711,
                -19.679718017578125
            ],
            "min" : [
                -2.3595900535583496,
                11.694124221801758,
                -23.854928970336914
            ],
            "type" : "VEC3"
        },
        {
            "bufferView" : 35,
            "componentType" : 5126,
            "count" : 186,
            "type" : "VEC3"
        },
        {
            "bufferView" : 36,
            "componentType" : 5126,
            "count" : 186,
            "type" : "VEC2"
        },
        {
            "bufferView" : 37,
            "componentType" : 5123,
            "count" : 828,
            "type" : "SCALAR"
        },
        {
            "bufferView" : 39,
            "componentType" : 5126,
            "count" : 278,
            "max" : [
                1.09483003616333,
                15.580074310302734,
                -19.763019561767578
            ],
            "min" : [
                -1.09483003616333,
                13.578574180603027,
                -22.396398544311523
            ],
            "type" : "VEC3"
        },
        {
            "bufferView" : 40,
            "componentType" : 5126,
            "count" : 278,
            "type" : "VEC3"
        },
        {
            "bufferView" : 41,
            "componentType" : 5126,
            "count" : 278,
            "type" : "VEC2"
        },
        {
            "bufferView" : 42,
            "componentType" : 5123,
            "count" : 1296,
            "type" : "SCALAR"
        }
    ],
    "bufferViews" : [
        {
            "buffer" : 0,
            "byteLength" : 2520,
            "byteOffset" : 0
        },
        {
            "buffer" : 0,
            "byteLength" : 2520,
            "byteOffset" : 2520
        },
        {
            "buffer" : 0,
            "byteLength" : 1680,
            "byteOffset" : 5040
        },
        {
            "buffer" : 0,
            "byteLength" : 1968,
            "byteOffset" : 6720
        },
        {
            "buffer" : 0,
            "byteLength" : 48450,
            "byteOffset" : 8688
        },
        {
            "buffer" : 0,
            "byteLength" : 14796,
            "byteOffset" : 57140
        },
        {
            "buffer" : 0,
            "byteLength" : 14796,
            "byteOffset" : 71936
        },
        {
            "buffer" : 0,
            "byteLength" : 9864,
            "byteOffset" : 86732
        },
        {
            "buffer" : 0,
            "byteLength" : 11544,
            "byteOffset" : 96596
        },
        {
            "buffer" : 0,
            "byteLength" : 6036,
            "byteOffset" : 108140
        },
        {
            "buffer" : 0,
            "byteLength" : 6036,
            "byteOffset" : 114176
        },
        {
            "buffer" : 0,
            "byteLength" : 4024,
            "byteOffset" : 120212
        },
        {
            "buffer" : 0,
            "byteLength" : 4584,
            "byteOffset" : 124236
        },
        {
            "buffer" : 0,
            "byteLength" : 52684,
            "byteOffset" : 128820
        },
        {
            "buffer" : 0,
            "byteLength" : 16800,
            "byteOffset" : 181504
        },
        {
            "buffer" : 0,
            "byteLength" : 16800,
            "byteOffset" : 198304
        },
        {
            "buffer" : 0,
            "byteLength" : 11200,
            "byteOffset" : 215104
        },
        {
            "buffer" : 0,
            "byteLength" : 14208,
            "byteOffset" : 226304
        },
        {
            "buffer" : 0,
            "byteLength" : 2290,
            "byteOffset" : 240512
        },
        {
            "buffer" : 0,
            "byteLength" : 2856,
            "byteOffset" : 242804
        },
        {
            "buffer" : 0,
            "byteLength" : 2856,
            "byteOffset" : 245660
        },
        {
            "buffer" : 0,
            "byteLength" : 1904,
            "byteOffset" : 248516
        },
        {
            "buffer" : 0,
            "byteLength" : 2256,
            "byteOffset" : 250420
        },
        {
            "buffer" : 0,
            "byteLength" : 2408,
            "byteOffset" : 252676
        },
        {
            "buffer" : 0,
            "byteLength" : 22044,
            "byteOffset" : 255084
        },
        {
            "buffer" : 0,
            "byteLength" : 22044,
            "byteOffset" : 277128
        },
        {
            "buffer" : 0,
            "byteLength" : 14696,
            "byteOffset" : 299172
        },
        {
            "buffer" : 0,
            "byteLength" : 16416,
            "byteOffset" : 313868
        },
        {
            "buffer" : 0,
            "byteLength" : 2264,
            "byteOffset" : 330284
        },
        {
            "buffer" : 0,
            "byteLength" : 1176,
            "byteOffset" : 332548
        },
        {
            "buffer" : 0,
            "byteLength" : 1176,
            "byteOffset" : 333724
        },
        {
            "buffer" : 0,
            "byteLength" : 784,
            "byteOffset" : 334900
        },
        {
            "buffer" : 0,
            "byteLength" : 768,
            "byteOffset" : 335684
        },
        {
            "buffer" : 0,
            "byteLength" : 225712,
            "byteOffset" : 336452
        },
        {
            "buffer" : 0,
            "byteLength" : 2232,
            "byteOffset" : 562164
        },
        {
            "buffer" : 0,
            "byteLength" : 2232,
            "byteOffset" : 564396
        },
        {
            "buffer" : 0,
            "byteLength" : 1488,
            "byteOffset" : 566628
        },
        {
            "buffer" : 0,
            "byteLength" : 1656,
            "byteOffset" : 568116
        },
        {
            "buffer" : 0,
            "byteLength" : 539651,
            "byteOffset" : 569772
        },
        {
            "buffer" : 0,
            "byteLength" : 3336,
            "byteOffset" : 1109424
        },
        {
            "buffer" : 0,
            "byteLength" : 3336,
            "byteOffset" : 1112760
        },
        {
            "buffer" : 0,
            "byteLength" : 2224,
            "byteOffset" : 1116096
        },
        {
            "buffer" : 0,
            "byteLength" : 2592,
            "byteOffset" : 1118320
        },
        {
            "buffer" : 0,
            "byteLength" : 2357,
            "byteOffset" : 1120912
        }
    ],
    "buffers" : [
        {
            "byteLength" : 1123272,
            "uri" : "data:application/octet-stream;base64,"
        }
    ]
}
