{
    "asset" : {
        "generator" : "Khronos glTF Blender I/O v1.0.5",
        "version" : "2.0"
    },
    "scene" : 0,
    "scenes" : [
        {
            "extras" : {
                "smd_export_list" : [
                    {
                        "name" : "Box_2A.dmx",
                        "ob_type" : "OBJECT",
                        "icon" : "OUTLINER_OB_MESH",
                        "item_name" : "Box_2A"
                    },
                    {
                        "name" : "Box_2B.dmx",
                        "ob_type" : "OBJECT",
                        "icon" : "OUTLINER_OB_MESH",
                        "item_name" : "Box_2B"
                    },
                    {
                        "name" : "Cylinder.001.dmx",
                        "ob_type" : "OBJECT",
                        "icon" : "OUTLINER_OB_MESH",
                        "item_name" : "Cylinder.001"
                    },
                    {
                        "name" : "Horse_2A.003.dmx",
                        "ob_type" : "OBJECT",
                        "icon" : "OUTLINER_OB_MESH",
                        "item_name" : "Horse_2A.003"
                    },
                    {
                        "name" : "Horse_2B.dmx",
                        "ob_type" : "OBJECT",
                        "icon" : "OUTLINER_OB_MESH",
                        "item_name" : "Horse_2B"
                    }
                ],
                "glTF2ExportSettings" : {
                    "export_apply" : 0,
                    "export_cameras" : 0,
                    "export_colors" : 1,
                    "export_extras" : 1,
                    "export_format" : "GLTF_EMBEDDED",
                    "export_lights" : 0,
                    "export_selected" : 1,
                    "export_tangents" : 0
                }
            },
            "name" : "Scene",
            "nodes" : [
                0
            ]
        }
    ],
    "nodes" : [
        {
            "mesh" : 0,
            "name" : "Horse",
            "rotation" : [
                0.7071068286895752,
                0,
                0,
                0.7071067094802856
            ]
        }
    ],
    "materials" : [
        {
            "doubleSided" : true,
            "name" : "Horse_Teeth",
            "pbrMetallicRoughness" : {
                "baseColorFactor" : [
                    0.800000011920929,
                    0.800000011920929,
                    0.800000011920929,
                    1
                ],
                "metallicFactor" : 0,
                "roughnessFactor" : 0.5
            }
        },
        {
            "doubleSided" : true,
            "name" : "Horse_Jaws",
            "pbrMetallicRoughness" : {
                "baseColorFactor" : [
                    0.800000011920929,
                    0.800000011920929,
                    0.800000011920929,
                    1
                ],
                "metallicFactor" : 0,
                "roughnessFactor" : 0.5
            }
        },
        {
            "doubleSided" : true,
            "name" : "Glass",
            "pbrMetallicRoughness" : {
                "baseColorTexture" : {
                    "index" : 0,
                    "texCoord" : 0
                },
                "metallicFactor" : 0,
                "roughnessFactor" : 0.5
            }
        },
        {
            "doubleSided" : true,
            "name" : "Horse_Body",
            "pbrMetallicRoughness" : {
                "baseColorTexture" : {
                    "index" : 1,
                    "texCoord" : 0
                },
                "metallicFactor" : 0,
                "roughnessFactor" : 0.5
            }
        }
    ],
    "meshes" : [
        {
            "name" : "Horse",
            "primitives" : [
                {
                    "attributes" : {
                        "POSITION" : 0,
                        "NORMAL" : 1,
                        "TEXCOORD_0" : 2
                    },
                    "indices" : 3,
                    "material" : 0
                },
                {
                    "attributes" : {
                        "POSITION" : 4,
                        "NORMAL" : 5,
                        "TEXCOORD_0" : 6
                    },
                    "indices" : 7,
                    "material" : 1
                },
                {
                    "attributes" : {
                        "POSITION" : 8,
                        "NORMAL" : 9,
                        "TEXCOORD_0" : 10
                    },
                    "indices" : 11,
                    "material" : 2
                },
                {
                    "attributes" : {
                        "POSITION" : 12,
                        "NORMAL" : 13,
                        "TEXCOORD_0" : 14
                    },
                    "indices" : 15,
                    "material" : 3
                }
            ]
        }
    ],
    "textures" : [
        {
            "source" : 0
        },
        {
            "source" : 1
        }
    ],
    "images" : [
        {
            "bufferView" : 12,
            "mimeType" : "image/jpeg",
            "name" : "V3 BrownEyes 12"
        },
        {
            "bufferView" : 17,
            "mimeType" : "image/jpeg",
            "name" : "horse texture"
        }
    ],
    "accessors" : [
        {
            "bufferView" : 0,
            "componentType" : 5126,
            "count" : 4245,
            "max" : [
                0.3756900131702423,
                4.294422149658203,
                -5.809751987457275
            ],
            "min" : [
                -0.3756900131702423,
                3.347579002380371,
                -7.1364970207214355
            ],
            "type" : "VEC3"
        },
        {
            "bufferView" : 1,
            "componentType" : 5126,
            "count" : 4245,
            "type" : "VEC3"
        },
        {
            "bufferView" : 2,
            "componentType" : 5126,
            "count" : 4245,
            "type" : "VEC2"
        },
        {
            "bufferView" : 3,
            "componentType" : 5123,
            "count" : 8628,
            "type" : "SCALAR"
        },
        {
            "bufferView" : 4,
            "componentType" : 5126,
            "count" : 4891,
            "max" : [
                0.19352300465106964,
                4.309002876281738,
                -5.795063018798828
            ],
            "min" : [
                -0.1965389996767044,
                3.516590118408203,
                -6.321689128875732
            ],
            "type" : "VEC3"
        },
        {
            "bufferView" : 5,
            "componentType" : 5126,
            "count" : 4891,
            "type" : "VEC3"
        },
        {
            "bufferView" : 6,
            "componentType" : 5126,
            "count" : 4891,
            "type" : "VEC2"
        },
        {
            "bufferView" : 7,
            "componentType" : 5123,
            "count" : 17220,
            "type" : "SCALAR"
        },
        {
            "bufferView" : 8,
            "componentType" : 5126,
            "count" : 1506,
            "max" : [
                0.3772369921207428,
                3.628098964691162,
                -6.825066089630127
            ],
            "min" : [
                -0.3772369921207428,
                3.346337080001831,
                -7.138044834136963
            ],
            "type" : "VEC3"
        },
        {
            "bufferView" : 9,
            "componentType" : 5126,
            "count" : 1506,
            "type" : "VEC3"
        },
        {
            "bufferView" : 10,
            "componentType" : 5126,
            "count" : 1506,
            "type" : "VEC2"
        },
        {
            "bufferView" : 11,
            "componentType" : 5123,
            "count" : 3648,
            "type" : "SCALAR"
        },
        {
            "bufferView" : 13,
            "componentType" : 5126,
            "count" : 2278,
            "max" : [
                1.1135890483856201,
                4.485884189605713,
                0.0035910001024603844
            ],
            "min" : [
                -1.1135890483856201,
                -4.410091876983643,
                -7.91387414932251
            ],
            "type" : "VEC3"
        },
        {
            "bufferView" : 14,
            "componentType" : 5126,
            "count" : 2278,
            "type" : "VEC3"
        },
        {
            "bufferView" : 15,
            "componentType" : 5126,
            "count" : 2278,
            "type" : "VEC2"
        },
        {
            "bufferView" : 16,
            "componentType" : 5123,
            "count" : 10776,
            "type" : "SCALAR"
        }
    ],
    "bufferViews" : [
        {
            "buffer" : 0,
            "byteLength" : 50940,
            "byteOffset" : 0
        },
        {
            "buffer" : 0,
            "byteLength" : 50940,
            "byteOffset" : 50940
        },
        {
            "buffer" : 0,
            "byteLength" : 33960,
            "byteOffset" : 101880
        },
        {
            "buffer" : 0,
            "byteLength" : 17256,
            "byteOffset" : 135840
        },
        {
            "buffer" : 0,
            "byteLength" : 58692,
            "byteOffset" : 153096
        },
        {
            "buffer" : 0,
            "byteLength" : 58692,
            "byteOffset" : 211788
        },
        {
            "buffer" : 0,
            "byteLength" : 39128,
            "byteOffset" : 270480
        },
        {
            "buffer" : 0,
            "byteLength" : 34440,
            "byteOffset" : 309608
        },
        {
            "buffer" : 0,
            "byteLength" : 18072,
            "byteOffset" : 344048
        },
        {
            "buffer" : 0,
            "byteLength" : 18072,
            "byteOffset" : 362120
        },
        {
            "buffer" : 0,
            "byteLength" : 12048,
            "byteOffset" : 380192
        },
        {
            "buffer" : 0,
            "byteLength" : 7296,
            "byteOffset" : 392240
        },
        {
            "buffer" : 0,
            "byteLength" : 52881,
            "byteOffset" : 399536
        },
        {
            "buffer" : 0,
            "byteLength" : 27336,
            "byteOffset" : 452420
        },
        {
            "buffer" : 0,
            "byteLength" : 27336,
            "byteOffset" : 479756
        },
        {
            "buffer" : 0,
            "byteLength" : 18224,
            "byteOffset" : 507092
        },
        {
            "buffer" : 0,
            "byteLength" : 21552,
            "byteOffset" : 525316
        },
        {
            "buffer" : 0,
            "byteLength" : 125740,
            "byteOffset" : 546868
        }
    ],
    "buffers" : [
        {
            "byteLength" : 672608,
            "uri" : "data:application/octet-stream;base64,"
        }
    ]
}
