{
    "asset" : {
        "generator" : "Khronos glTF Blender I/O v1.0.5",
        "version" : "2.0"
    },
    "scene" : 0,
    "scenes" : [
        {
            "name" : "Scene",
            "nodes" : [
                0
            ]
        }
    ],
    "nodes" : [
        {
            "mesh" : 0,
            "name" : "Rock",
            "rotation" : [
                -0.027200207114219666,
                -0.7065834999084473,
                -0.7065833806991577,
                -0.027200203388929367
            ],
            "scale" : [
                0.4834915101528168,
                0.6340808272361755,
                0.7578359842300415
            ],
            "translation" : [
                0,
                37.23625946044922,
                0
            ]
        }
    ],
    "materials" : [
        {
            "doubleSided" : true,
            "name" : "Material",
            "pbrMetallicRoughness" : {
                "baseColorTexture" : {
                    "index" : 0,
                    "texCoord" : 0
                },
                "metallicFactor" : 0,
                "roughnessFactor" : 0.5
            }
        }
    ],
    "meshes" : [
        {
            "name" : "Rock",
            "primitives" : [
                {
                    "attributes" : {
                        "POSITION" : 0,
                        "NORMAL" : 1,
                        "TEXCOORD_0" : 2
                    },
                    "indices" : 3,
                    "material" : 0
                }
            ]
        }
    ],
    "textures" : [
        {
            "source" : 0
        }
    ],
    "images" : [
        {
            "bufferView" : 4,
            "mimeType" : "image/jpeg",
            "name" : "Rock_ao"
        }
    ],
    "accessors" : [
        {
            "bufferView" : 0,
            "componentType" : 5126,
            "count" : 1098,
            "max" : [
                91.62689971923828,
                86.44860076904297,
                43.2599983215332
            ],
            "min" : [
                -120.86139678955078,
                -46.73059844970703,
                -51.46799850463867
            ],
            "type" : "VEC3"
        },
        {
            "bufferView" : 1,
            "componentType" : 5126,
            "count" : 1098,
            "type" : "VEC3"
        },
        {
            "bufferView" : 2,
            "componentType" : 5126,
            "count" : 1098,
            "type" : "VEC2"
        },
        {
            "bufferView" : 3,
            "componentType" : 5123,
            "count" : 5766,
            "type" : "SCALAR"
        }
    ],
    "bufferViews" : [
        {
            "buffer" : 0,
            "byteLength" : 13176,
            "byteOffset" : 0
        },
        {
            "buffer" : 0,
            "byteLength" : 13176,
            "byteOffset" : 13176
        },
        {
            "buffer" : 0,
            "byteLength" : 8784,
            "byteOffset" : 26352
        },
        {
            "buffer" : 0,
            "byteLength" : 11532,
            "byteOffset" : 35136
        },
        {
            "buffer" : 0,
            "byteLength" : 588733,
            "byteOffset" : 46668
        }
    ],
    "buffers" : [
        {
            "byteLength" : 635404,
            "uri" : "data:application/octet-stream;base64,"
        }
    ]
}
